<svg width="24" height="24" viewBox="0 0 24 24" fill="none" xmlns="http://www.w3.org/2000/svg">
<path d="M19.4947 17.3538C17.746 17.3429 16.0316 16.8568 14.5273 15.9455C13.023 15.0342 11.7829 13.7304 10.9341 12.1678C10.0854 10.6053 9.65857 8.84009 9.69739 7.05333C9.72818 5.63684 10.0507 4.24719 10.6394 2.97347C10.8196 2.58347 10.4951 2.13248 10.0836 2.25589C8.10453 2.8494 6.34748 4.06586 5.07141 5.74581C3.56924 7.72344 2.84118 10.2017 3.02906 12.698C3.21694 15.1942 4.30731 17.5295 6.08776 19.2491C7.86822 20.9686 10.2112 21.9493 12.6604 21.9999C14.3361 22.0043 15.9844 21.5661 17.4455 20.7278C18.5967 20.0673 19.601 19.1761 20.4002 18.1116C20.6559 17.7711 20.3536 17.312 19.9285 17.3374C19.7841 17.346 19.6394 17.3515 19.4947 17.3538Z" stroke="#121219" stroke-width="2" stroke-linecap="round" stroke-linejoin="round"/>
</svg>
